#!OML:ASF I:\Actors\actors\Patient Classification 1\Patient 1\Session 1\Subject1.ASF
:FULLY-SPECIFIED
:DEGREES
295
root 0.140878 17.6748 8.62407 17.5363 8.52338 -9.57602
lowerback 11.016 1.49558 4.48894
upperback 0.128105 2.55095 -0.0970498
thorax -5.84948 1.12282 -3.03198
lowerneck -0.737033 -3.44114 -1.46484
upperneck -20.6439 -2.29063 14.144
head -5.84711 -1.97186 4.88868
rclavicle 1.35174e-014 1.59028e-015
rhumerus 2.42366 21.1874 -84.6352
rradius 31.9733
rwrist 28.9387
rhand 0.656627 -26.0142
rfingers 7.12502
rthumb 26.2192 -54.2231
lclavicle 1.35174e-014 1.59028e-015
lhumerus 2.48261 1.02229 91.7547
lradius 15.5779
lwrist -38.1152
lhand -26.037 -26.8055
lfingers 7.12502
lthumb 0.510007 3.1736
rfemur -13.6821 22.3179 22.9796
rtibia 4.83832
rfoot -15.2231 -31.3498
rtoes 7.44126
lfemur -14.6379 -40.221 3.14111
ltibia -2.01759
lfoot -9.80832 44.9662
ltoes -3.48454
296
root 0.14267 17.6804 8.62951 17.5719 8.63302 -9.59313
lowerback 10.6934 1.44767 4.54132
upperback 0.238068 2.47348 -0.109775
thorax -5.55549 1.09365 -3.04775
lowerneck -0.685886 -3.36157 -1.47621
upperneck -20.6177 -2.1475 14.3364
head -5.85563 -1.9151 4.94902
rclavicle 4.77083e-015 -7.95139e-015
rhumerus 2.63262 21.1518 -84.5956
rradius 32.0745
rwrist 28.6215
rhand 0.699254 -25.987
rfingers 7.12502
rthumb 26.26 -54.1898
lclavicle 4.77083e-015 -7.95139e-015
lhumerus 2.69039 1.30955 91.7964
lradius 15.5033
lwrist -38.329
lhand -26.1625 -26.7846
lfingers 7.12502
lthumb 0.388751 3.19477
rfemur -13.6932 22.2648 23.0082
rtibia 4.80813
rfoot -15.2425 -31.3911
rtoes 7.58429
lfemur -14.7076 -40.2984 3.22125
ltibia -2.03778
lfoot -9.82659 44.9997
ltoes -3.50741
297
root 0.143568 17.6835 8.63118 17.5787 8.78336 -9.57024
lowerback 10.4333 1.42758 4.63613
upperback 0.410264 2.43765 -0.146006
thorax -5.22534 1.08569 -3.11965
lowerneck -0.593621 -3.30674 -1.57276
upperneck -20.6039 -2.02615 14.6144
head -5.86969 -1.87026 5.05433
rclavicle -1.19271e-015 4.29375e-014
rhumerus 2.92626 21.0162 -84.3911
rradius 32.2782
rwrist 28.3652
rhand 0.805542 -25.9985
rfingers 7.12502
rthumb 26.3617 -54.1861
lclavicle -1.19271e-015 4.29375e-014
lhumerus 3.00294 1.08677 91.8203
lradius 15.4748
lwrist -38.3186
lhand -26.1932 -26.9311
lfingers 7.12502
lthumb 0.359181 3.04837
rfemur -13.6949 22.1496 23.0054
rtibia 4.8223
rfoot -15.3083 -31.4041
rtoes 7.68786
lfemur -14.796 -40.272 3.24056
ltibia -2.01224
lfoot -9.84959 44.8852
ltoes -3.56536
298
root 0.141316 17.6843 8.62794 17.4532 8.90654 -9.49154
lowerback 10.3499 1.4131 4.61255
upperback 0.64049 2.40352 -0.165809
thorax -4.93918 1.0813 -3.11374
lowerneck -0.291328 -3.27541 -1.69136
upperneck -20.6169 -1.92904 14.9126
head -5.92668 -1.84644 5.17709
rclavicle 7.15625e-015 -5.56597e-015
rhumerus 3.22657 20.8647 -84.1339
rradius 32.5738
rwrist 28.2742
rhand 0.882734 -25.9826
rfingers 7.12502
rthumb 26.4356 -54.1591
lclavicle 7.15625e-015 -5.56597e-015
lhumerus 3.33389 0.617988 91.8417
lradius 15.5561
lwrist -38.199
lhand -26.0576 -26.9002
lfingers 7.12502
lthumb 0.490066 3.07901
rfemur -13.5757 22.1172 22.9847
rtibia 4.90485
rfoot -15.559 -31.4551
rtoes 8.05008
lfemur -14.7221 -40.0677 3.05681
ltibia -1.96214
lfoot -9.70959 44.5351
ltoes -3.77976
299
root 0.13761 17.6807 8.61823 17.1974 8.99999 -9.46314
lowerback 10.4322 1.37388 4.56907
upperback 0.908047 2.34469 -0.134205
thorax -4.71205 1.06433 -3.04508
lowerneck 0.189351 -3.17486 -1.87726
upperneck -20.4109 -1.74557 15.3091
head -5.95148 -1.78162 5.3361
rclavicle 2.26615e-014 -4.6118e-014
rhumerus 3.54499 20.9603 -83.8311
rradius 32.9105
rwrist 28.1749
rhand 0.869756 -26.1329
rfingers 7.12502
rthumb 26.4232 -54.3113
lclavicle 2.26615e-014 -4.6118e-014
lhumerus 3.70214 0.235546 91.8735
lradius 15.6664
lwrist -38.1813
lhand -25.8159 -26.6823
lfingers 7.12502
lthumb 0.72353 3.29623
rfemur -13.3573 22.0741 23.0686
rtibia 5.04424
rfoot -15.8899 -31.4409
rtoes 8.49242
lfemur -14.492 -39.6997 2.79717
ltibia -1.89751
lfoot -9.46999 44.0123
ltoes -4.16007
300
root 0.134149 17.6699 8.6042 16.9465 9.1004 -9.51732
lowerback 10.5126 1.3251 4.60741
upperback 1.1415 2.2854 -0.0666189
thorax -4.51808 1.04419 -2.9856
lowerneck 0.812996 -3.08247 -2.01567
upperneck -19.9831 -1.60968 15.637
head -5.93151 -1.7366 5.45989
rclavicle -1.15295e-014 -3.97569e-015
rhumerus 4.35216 23.9349 -82.4188
rradius 32.9176
rwrist 25.2096
rhand 0.235086 -26.9316
rfingers 7.12502
rthumb 25.8155 -55.1998
lclavicle -1.15295e-014 -3.97569e-015
lhumerus 3.97121 -0.332502 91.8463
lradius 15.8148
lwrist -37.9359
lhand -25.7299 -26.6827
lfingers 7.12502
lthumb 0.806583 3.29555
rfemur -13.1502 21.899 23.2545
rtibia 5.16003
rfoot -16.0531 -31.3153
rtoes 8.23653
lfemur -14.2877 -39.3453 2.65729
ltibia -1.83492
lfoot -9.29879 43.5088
ltoes -4.51691
301
root 0.130289 17.6552 8.58949 16.7622 9.17304 -9.57992
lowerback 10.5182 1.29528 4.63555
upperback 1.2847 2.24946 0.0169233
thorax -4.37634 1.0329 -2.9063
lowerneck 1.66469 -3.03057 -2.04805
upperneck -19.2844 -1.58974 15.7643
head -5.86375 -1.74048 5.49717
rclavicle 3.10104e-014 -7.15625e-015
rhumerus 4.18996 21.4811 -83.1633
rradius 33.0012
rwrist 27.597
rhand 1.3602 -26.1843
rfingers 7.12502
rthumb 26.8926 -54.2913
lclavicle 3.10104e-014 -7.15625e-015
lhumerus 4.06777 -0.757868 91.8622
lradius 15.9263
lwrist -37.723
lhand -25.8643 -26.7083
lfingers 7.12502
lthumb 0.676802 3.27041
rfemur -12.9801 21.787 23.4107
rtibia 5.18722
rfoot -16.1207 -31.2361
rtoes 7.68807
lfemur -14.1205 -39.2062 2.61543
ltibia -1.85402
lfoot -9.24467 43.2378
ltoes -4.61526
302
root 0.125711 17.6427 8.57526 16.6369 9.17684 -9.59132
lowerback 10.4926 1.23897 4.5195
upperback 1.28934 2.16338 0.0804895
thorax -4.37119 0.993114 -2.76212
lowerneck 2.97907 -2.95797 -1.95275
upperneck -18.4911 -1.56391 15.706
head -5.85778 -1.75145 5.45836
rclavicle -1.59028e-015 2.3059e-014
rhumerus 4.23386 21.4312 -83.2628
rradius 32.7028
rwrist 27.696
rhand 2.07544 -25.9661
rfingers 7.12502
rthumb 27.5767 -53.9657
lclavicle -1.59028e-015 2.3059e-014
lhumerus 3.94002 -0.460021 91.8839
lradius 15.9264
lwrist -37.961
lhand -25.9932 -26.7107
lfingers 7.12502
lthumb 0.552309 3.26831
rfemur -12.8565 21.8949 23.4403
rtibia 5.1604
rfoot -16.3257 -31.2551
rtoes 7.92446
lfemur -13.9408 -39.2117 2.55834
ltibia -1.97502
lfoot -9.18499 43.1901
ltoes -4.58835
303
root 0.12182 17.6357 8.56114 16.615 9.16056 -9.53615
lowerback 10.4208 1.15999 4.28995
upperback 1.22891 2.03304 0.125749
thorax -4.41454 0.93108 -2.56713
lowerneck 4.40863 -2.89601 -1.84382
upperneck -17.6921 -1.55586 15.5877
head -5.87142 -1.77072 5.40237
rclavicle -1.23246e-014 -4.77083e-015
rhumerus 4.19704 21.4766 -83.4709
rradius 32.3501
rwrist 27.8002
rhand 2.26033 -26.1591
rfingers 7.12502
rthumb 27.7535 -54.1305
lclavicle -1.23246e-014 -4.77083e-015
lhumerus 3.77113 0.184041 91.8565
lradius 15.8313
lwrist -38.442
lhand -26.0269 -26.7804
lfingers 7.12502
lthumb 0.519754 3.19874
rfemur -12.8595 21.9378 23.3446
rtibia 5.13205
rfoot -16.4723 -31.2211
rtoes 8.3578
lfemur -13.8832 -39.2462 2.50503
ltibia -2.09957
lfoot -9.01148 43.2435
ltoes -4.86902
304
root 0.119532 17.6364 8.54769 16.6583 9.20164 -9.47185
lowerback 10.4101 1.14697 4.16815
upperback 1.27022 2.00378 0.196358
thorax -4.37427 0.920858 -2.41992
lowerneck 5.15361 -2.99711 -1.96594
upperneck -16.867 -1.81404 15.4989
head -5.72276 -1.87875 5.39338
rclavicle 4.13472e-014 -1.59028e-014
rhumerus 4.86842 23.8847 -82.3249
rradius 31.8147
rwrist 25.2244
rhand 3.62282 -26.2112
rfingers 7.12502
rthumb 29.0555 -53.9654
lclavicle 4.13472e-014 -1.59028e-014
lhumerus 3.93854 0.60529 91.9825
lradius 15.659
lwrist -39.0027
lhand -26.0363 -26.8286
lfingers 7.12502
lthumb 0.510658 3.15055
rfemur -12.95 21.7978 23.2366
rtibia 5.1102
rfoot -16.4091 -31.1485
rtoes 8.2961
lfemur -14.0075 -39.3445 2.54981
ltibia -2.14057
lfoot -8.91434 43.3144
ltoes -5.04458
305
root 0.118065 17.6433 8.53657 16.7136 9.26948 -9.42052
lowerback 10.5174 1.1712 4.13671
upperback 1.37411 2.03802 0.267758
thorax -4.32655 0.941353 -2.33377
lowerneck 5.31752 -3.20698 -2.07276
upperneck -16.2408 -2.22773 15.2912
head -5.51948 -2.04206 5.34467
rclavicle -9.14409e-015 -2.38542e-014
rhumerus 4.82863 20.5623 -83.1869
rradius 31.426
rwrist 28.3002
rhand 1.41373 -26.7496
rfingers 7.12502
rthumb 26.9438 -54.8487
lclavicle -9.14409e-015 -2.38542e-014
lhumerus 4.24836 0.821456 92.1711
lradius 15.5258
lwrist -39.5906
lhand -25.944 -26.8531
lfingers 7.12502
lthumb 0.599806 3.12581
rfemur -13.0588 21.6664 23.1483
rtibia 5.11336
rfoot -16.3315 -31.1245
rtoes 8.21178
lfemur -14.2107 -39.4952 2.65904
ltibia -2.12113
lfoot -9.06762 43.3893
ltoes -4.56548
306
root 0.116081 17.6533 8.52738 16.8236 9.27827 -9.40032
lowerback 10.6777 1.18528 4.08993
upperback 1.4341 2.05972 0.31841
thorax -4.35493 0.953232 -2.26148
lowerneck 5.37575 -3.31988 -2.07654
upperneck -16.1275 -2.43678 15.0499
head -5.47913 -2.12594 5.27421
rclavicle -2.10712e-014 1.43125e-014
rhumerus 5.406 22.8313 -81.9994
rradius 31.223
rwrist 25.7646
rhand -0.114516 -27.4803
rfingers 7.12502
rthumb 25.4807 -55.7967
lclavicle -2.10712e-014 1.43125e-014
lhumerus 4.37828 0.635189 92.1714
lradius 15.5975
lwrist -39.6342
lhand -25.7817 -26.9624
lfingers 7.12502
lthumb 0.756566 3.01604
rfemur -13.2209 21.649 23.063
rtibia 5.09162
rfoot -16.2519 -31.1359
rtoes 8.2469
lfemur -14.4415 -39.5935 2.81691
ltibia -2.1131
lfoot -9.20764 43.5193
ltoes -4.16006
307
root 0.113162 17.6638 8.5194 17.0458 9.24854 -9.40383
lowerback 10.8211 1.21077 4.04805
upperback 1.41387 2.09684 0.336889
thorax -4.45556 0.969575 -2.22868
lowerneck 5.31317 -3.30776 -2.11062
upperneck -16.3728 -2.40763 14.9795
head -5.54669 -2.11207 5.2632
rclavicle 1.03368e-014 -1.98785e-014
rhumerus 4.94387 19.6162 -83.1215
rradius 31.3591
rwrist 28.7624
rhand 0.272942 -26.6613
rfingers 7.12502
rthumb 25.8518 -54.9242
lclavicle 1.03368e-014 -1.98785e-014
lhumerus 4.27478 -0.338613 91.9311
lradius 15.9095
lwrist -38.6477
lhand -25.7048 -27.1497
lfingers 7.12502
lthumb 0.830858 2.82845
rfemur -13.4871 21.7809 22.9428
rtibia 5.00557
rfoot -16.1707 -31.2379
rtoes 8.31082
lfemur -14.7991 -39.7193 3.10539
ltibia -2.11303
lfoot -9.25155 43.7827
ltoes -4.12398
308
root 0.11152 17.6716 8.51459 17.3432 9.24362 -9.43663
lowerback 10.8829 1.24341 4.10117
upperback 1.3102 2.1512 0.318403
thorax -4.59233 0.990542 -2.2894
lowerneck 5.27914 -3.3505 -2.1195
upperneck -17.0395 -2.39296 14.9712
head -5.74833 -2.12784 5.28611
rclavicle -2.54444e-014 2.54444e-014
rhumerus 4.68626 19.911 -82.9868
rradius 31.7998
rwrist 28.164
rhand 0.376281 -26.8232
rfingers 7.12502
rthumb 25.9507 -55.0716
lclavicle -2.54444e-014 2.54444e-014
lhumerus 3.9875 -1.79394 91.5779
lradius 16.3015
lwrist -37.1513
lhand -25.6401 -27.1095
lfingers 7.12502
lthumb 0.893374 2.86838
rfemur -13.8219 21.9379 22.8226
rtibia 4.92075
rfoot -16.1727 -31.3698
rtoes 8.43869
lfemur -15.2589 -40.002 3.54196
ltibia -2.13016
lfoot -9.42677 44.1906
ltoes -3.82677
